Coordinates
version=1
nRows=5
nColumns=42
inDegrees=yes

Units are S.I. units (second, meters, Newtons, ...)
If the header above contains a line with 'inDegrees', this indicates whether rotational values are in degrees (yes) or radians (no).

endheader
time	pelvis_tilt	pelvis_list	pelvis_rotation	pelvis_tx	pelvis_ty	pelvis_tz	hip_flexion_r	hip_adduction_r	hip_rotation_r	knee_angle_r	knee_adduction_r	knee_angle_r_beta	ankle_angle_r	subtalar_angle_r	mtp_angle_r	hip_flexion_l	hip_adduction_l	hip_rotation_l	knee_angle_l	knee_adduction_l	knee_angle_l_beta	ankle_angle_l	subtalar_angle_l	mtp_angle_l	lumbar_extension	lumbar_bending	lumbar_rotation	arm_flex_r	arm_add_r	arm_rot_r	elbow_flex_r	pro_sup_r	wrist_flex_r	wrist_dev_r	arm_flex_l	arm_add_l	arm_rot_l	elbow_flex_l	pro_sup_l	wrist_flex_l	wrist_dev_l
      0.60000000	     15.91216086	      0.27892433	      6.86133986	     -0.47424338	      0.95641877	     -0.14178045	      9.65325357	      1.62545970	    -15.54124091	     30.46403248	     -3.11547794	      0.53169767	      4.30540660	      1.09851062	     -8.20219979	    -26.76858988	     -4.42614853	     -5.65975125	     42.05841678	     -2.05017860	      0.73405785	     -5.56740953	     14.37852619	     -8.20219979	    -34.99139536	      6.97336873	      2.26845938	     -4.03604408	    -17.38291926	    -13.14696957	     59.20637155	     90.00000001	      0.00000000	      0.00000000	      4.27486404	    -18.41019990	      2.01647300	     70.87568316	     90.00000001	      0.00000000	      0.00000000
      0.61000000	     15.96164505	      0.05656003	      6.79029656	     -0.45968945	      0.95825799	     -0.14059995	      8.75312045	      2.09161621	    -16.07884021	     30.62207982	     -3.43501203	      0.53445612	      5.72688290	      2.22107403	     -8.15770008	    -25.14188793	     -4.64258107	     -4.52390472	     45.65507695	     -1.94093028	      0.79683141	     -6.81711400	     11.88965763	     -8.15770008	    -35.09891181	      7.19393378	      2.67468766	     -3.73773019	    -17.47324617	    -13.03519419	     59.25207037	     90.00000001	      0.00000000	      0.00000000	      3.67360813	    -18.14573732	      1.75454983	     70.39926324	     90.00000001	      0.00000000	      0.00000000
      0.62000000	     15.87913876	     -0.22805248	      6.68948582	     -0.44544795	      0.95997764	     -0.13926539	      7.93221749	      2.62633904	    -16.74237181	     30.55390019	     -3.82705635	      0.53326616	      6.92384306	      3.49430354	     -8.11989576	    -23.22073884	     -4.89625137	     -3.68461486	     49.25187600	     -1.93077196	      0.85960740	     -7.36613086	      9.76713937	     -8.11989576	    -35.08133336	      7.41971561	      3.14205103	     -3.43686898	    -17.58706911	    -12.86215031	     59.32162359	     90.00000001	      0.00000000	      0.00000000	      3.14264438	    -17.87771984	      1.50948511	     69.83691342	     90.00000001	      0.00000000	      0.00000000
      0.63000000	     15.95650899	     -0.44022956	      6.59412389	     -0.43135890	      0.96217295	     -0.13804556	      6.69819977	      3.07185755	    -16.88581095	     30.10657426	     -3.79691851	      0.52545885	      8.03621840	      4.07925423	     -8.10730073	    -21.44906306	     -5.00986657	     -3.40384620	     52.45086547	     -2.43155644	      0.91544030	     -7.40600116	      8.69919966	     -8.10730073	    -35.26113253	      7.59026800	      3.54943669	     -3.12935856	    -17.70395375	    -12.70797587	     59.56256922	     90.00000001	      0.00000000	      0.00000000	      2.64184225	    -17.66469290	      1.39452330	     69.22735281	     90.00000001	      0.00000000	      0.00000000
      0.64000000	     15.80960379	     -0.77604819	      6.39371133	     -0.41759788	      0.96404495	     -0.13627752	      5.86104556	      3.72399786	    -17.45942965	     29.74043953	     -4.23914105	      0.51906859	      8.84126700	      5.27355246	     -8.08795204	    -19.36158760	     -5.31448946	     -3.01077991	     55.53209538	     -2.46987987	      0.96921790	     -6.92621603	      7.06988845	     -8.08795204	    -35.23345340	      7.72924016	      4.11639935	     -2.81904170	    -17.82888662	    -12.41754269	     59.70078696	     90.00000001	      0.00000000	      0.00000000	      2.25127695	    -17.45014220	      1.18726911	     68.49500039	     90.00000001	      0.00000000	      0.00000000
